#!OML:ASF H:\charlestonDancing\Project 1\Capture day 1\Session 1\femaleDancer.ASF
:FULLY-SPECIFIED
:DEGREES
401
root -16.0784 18.224 1.93135 212.881 -100.942 -206.365
lowerback 16.7464 -1.9304 3.21876
upperback 2.79118 -2.01609 1.29951
thorax -6.45329 -1.09612 0.00972948
lowerneck 12.0593 -18.424 -12.18
upperneck -7.30598 -25.4422 13.2142
head -0.826549 -13.0781 6.08225
rclavicle 5.96354e-015 -1.07344e-014
rhumerus -19.9793 24.8014 -81.7216
rradius 30.5411
rwrist 45.8476
rhand -37.2414 -41.5729
rfingers 7.12502
rthumb -10.3075 288.7
lclavicle 5.96354e-015 -1.07344e-014
lhumerus -39.6615 -1.23803 67.1213
lradius 32.1777
lwrist -21.5361
lhand -32.8424 -7.7608
lfingers 7.12502
lthumb -6.06203 22.1325
rfemur -31.4895 3.87446 15.304
rtibia 39.8211
rfoot -7.85233 23.0256
rtoes -44.9458
lfemur -26.1234 2.83929 -25.3524
ltibia 45.6669
lfoot -2.47163 8.07732
ltoes -11.3937
402
root -16.0297 18.1848 1.92744 218.046 -100.7 -210.661
lowerback 15.9688 -1.79934 3.94637
upperback 2.65924 -1.73338 1.50856
thorax -6.17695 -0.969052 -0.261817
lowerneck 12.1335 -18.3394 -12.2089
upperneck -7.99791 -25.3135 13.158
head -1.06517 -13.0096 6.13639
rclavicle 1.63997e-014 -6.55989e-015
rhumerus -20.5355 27.5831 -81.1621
rradius 31.1233
rwrist 44.9847
rhand -36.7718 -41.3852
rfingers 7.12502
rthumb -9.85444 288.865
lclavicle 1.63997e-014 -6.55989e-015
lhumerus -39.8649 -1.39862 65.5757
lradius 32.6148
lwrist -20.1732
lhand -32.9675 -6.7625
lfingers 7.12502
lthumb -6.18283 23.1273
rfemur -31.2745 7.8881 13.7133
rtibia 41.8051
rfoot -11.0799 15.7886
rtoes -37.6883
lfemur -27.2374 5.0178 -25.5837
ltibia 45.3944
lfoot -3.8822 9.43172
ltoes -10.4499
403
root -15.9827 18.1232 1.92485 224.408 -100.966 -216.456
lowerback 15.3486 -1.74587 5.182
upperback 2.55099 -1.47316 1.83609
thorax -5.96411 -0.863848 -0.679297
lowerneck 12.1474 -18.3106 -12.2707
upperneck -8.34786 -25.2808 13.0037
head -1.19031 -12.9817 6.13194
rclavicle 2.05742e-014 -1.45113e-014
rhumerus -21.0905 29.1908 -80.4537
rradius 31.5823
rwrist 44.9546
rhand -36.1527 -40.2737
rfingers 7.12502
rthumb -9.25719 289.949
lclavicle 2.05742e-014 -1.45113e-014
lhumerus -40.2238 -1.44261 63.7798
lradius 32.9792
lwrist -19.8484
lhand -33.5301 -5.54611
lfingers 7.12502
lthumb -6.72601 24.3271
rfemur -30.6666 10.8652 13.245
rtibia 43.9616
rfoot -13.0893 9.53968
rtoes -33.9412
lfemur -28.1449 7.8538 -25.615
ltibia 45.1496
lfoot -5.78258 10.6668
ltoes -7.14749
404
root -15.9328 18.0601 1.93171 226.325 -100.932 -217.863
lowerback 14.792 -1.77109 5.60642
upperback 2.4354 -1.46387 1.93285
thorax -5.78929 -0.863729 -0.829675
lowerneck 12.2298 -18.203 -12.4137
upperneck -8.63715 -25.1528 13.0685
head -1.27917 -12.9182 6.19959
rclavicle 1.21259e-014 1.98785e-016
rhumerus -21.6061 30.4338 -79.8299
rradius 31.8044
rwrist 45.0138
rhand -36.1098 -39.5972
rfingers 7.12502
rthumb -9.21577 290.624
lclavicle 1.21259e-014 1.98785e-016
lhumerus -40.6642 -1.16822 61.7384
lradius 33.2071
lwrist -20.2226
lhand -34.2796 -3.88895
lfingers 7.12502
lthumb -7.44944 25.9599
rfemur -29.3573 11.7785 12.7453
rtibia 46.1865
rfoot -15.3097 4.27472
rtoes -38.1514
lfemur -28.8209 10.5671 -26.8066
ltibia 44.6713
lfoot -7.96154 11.7132
ltoes -3.17399
405
root -15.8808 17.9954 1.94423 227.398 -101.056 -218.669
lowerback 14.4261 -1.88435 6.03758
upperback 2.37815 -1.56658 2.00669
thorax -5.66392 -0.919507 -0.981856
lowerneck 12.4103 -18.0269 -12.4919
upperneck -9.00576 -24.9208 13.2929
head -1.40533 -12.8154 6.32482
rclavicle 3.78685e-014 1.98785e-015
rhumerus -22.013 31.3499 -79.2883
rradius 31.7791
rwrist 45.2117
rhand -36.2748 -39.7681
rfingers 7.12502
rthumb -9.37497 290.46
lclavicle 3.78685e-014 1.98785e-015
lhumerus -41.1304 -0.621717 59.5069
lradius 33.3835
lwrist -21.0873
lhand -34.9917 -1.8251
lfingers 7.12502
lthumb -8.13672 27.9982
rfemur -27.6354 11.6539 12.8028
rtibia 48.4173
rfoot -14.9042 -0.280269
rtoes -39.2272
lfemur -29.1866 12.7817 -27.8948
ltibia 43.9566
lfoot -9.83079 12.6064
ltoes -2.95614
406
root -15.8273 17.9257 1.95993 228.257 -101.265 -219.47
lowerback 14.2845 -2.00158 6.47966
upperback 2.31671 -1.659 2.05984
thorax -5.66739 -0.973722 -1.15768
lowerneck 12.5532 -17.9169 -12.2393
upperneck -9.24005 -24.7464 13.1904
head -1.56273 -12.7293 6.31786
rclavicle 4.48259e-014 -9.54166e-015
rhumerus -22.3643 31.5003 -78.7717
rradius 31.5772
rwrist 45.5656
rhand -36.185 -40.1128
rfingers 7.12502
rthumb -9.28836 290.112
lclavicle 4.48259e-014 -9.54166e-015
lhumerus -41.5858 -0.0228977 57.219
lradius 33.3628
lwrist -22.0161
lhand -35.8143 -0.0183187
lfingers 7.12502
lthumb -8.93064 29.7727
rfemur -25.6698 10.6053 13.4163
rtibia 50.7002
rfoot -14.861 -2.85495
rtoes -35.837
lfemur -29.0378 14.0488 -28.4586
ltibia 42.9326
lfoot -11.7785 12.8693
ltoes -3.91048
407
root -15.7782 17.8354 1.96586 228.498 -101.272 -219.799
lowerback 14.287 -2.06465 6.47733
upperback 2.24935 -1.73582 2.0764
thorax -5.74558 -1.01322 -1.12212
lowerneck 12.603 -17.8467 -11.8717
upperneck -9.23193 -24.6193 12.8905
head -1.66737 -12.6566 6.21812
rclavicle 9.64106e-015 8.34896e-015
rhumerus -22.6276 30.8077 -78.2357
rradius 31.2174
rwrist 46.2596
rhand -35.8232 -40.1138
rfingers 7.12502
rthumb -8.93923 290.096
lclavicle 9.64106e-015 8.34896e-015
lhumerus -41.9805 0.923363 54.8731
lradius 33.1243
lwrist -22.3564
lhand -36.0746 1.90187
lfingers 7.12502
lthumb -9.18177 31.682
rfemur -23.6228 9.11145 14.1117
rtibia 52.989
rfoot -15.4735 -4.90773
rtoes -34.6385
lfemur -28.3099 14.2085 -28.574
ltibia 41.7466
lfoot -14.0979 12.0867
ltoes -3.73061
408
root -15.7353 17.7332 1.9587 227.528 -100.95 -218.926
lowerback 14.2107 -2.05002 5.86143
upperback 2.21364 -1.8142 1.99228
thorax -5.73219 -1.03793 -0.852941
lowerneck 12.7649 -17.7485 -11.5738
upperneck -9.2888 -24.4582 12.8104
head -1.77397 -12.5807 6.19908
rclavicle -3.57812e-015 -4.03533e-014
rhumerus -22.7281 29.0455 -77.6344
rradius 30.7556
rwrist 47.63
rhand -35.3021 -39.6704
rfingers 7.12502
rthumb -8.43634 290.518
lclavicle -3.57812e-015 -4.03533e-014
lhumerus -42.2281 2.3537 52.4456
lradius 32.7638
lwrist -22.1683
lhand -35.9628 4.054
lfingers 7.12502
lthumb -9.07395 33.8388
rfemur -21.6339 7.38917 14.5636
rtibia 55.0867
rfoot -15.4705 -5.92766
rtoes -34.1888
lfemur -27.3976 13.8 -28.693
ltibia 40.7084
lfoot -16.5091 10.4679
ltoes -3.31213
409
root -15.685 17.6233 1.93961 226.185 -100.572 -217.516
lowerback 14.0401 -1.99541 5.10918
upperback 2.12028 -1.86436 1.82773
thorax -5.7237 -1.04588 -0.599305
lowerneck 12.9786 -17.7016 -11.1541
upperneck -9.35226 -24.3463 12.7573
head -1.89477 -12.5352 6.17812
rclavicle 8.94531e-016 -1.64991e-014
rhumerus -22.7254 26.1331 -77.0618
rradius 30.245
rwrist 49.543
rhand -34.7186 -39.1474
rfingers 7.12502
rthumb -7.87318 291.019
lclavicle 8.94531e-016 -1.64991e-014
lhumerus -42.2926 4.08965 49.9955
lradius 32.2923
lwrist -21.5105
lhand -35.7298 6.05044
lfingers 7.12502
lthumb -8.84904 35.8449
rfemur -20.0091 5.62212 15.0331
rtibia 56.9517
rfoot -16.0556 -5.43214
rtoes -30.6739
lfemur -26.8326 13.6902 -28.9454
ltibia 39.8817
lfoot -18.6432 8.34836
ltoes -2.94183
